<svg xmlns="http://www.w3.org/2000/svg" viewBox="0 0 50 85">
  <!-- Racket head -->
  <path d="M25 3 C8 3 3 16 3 28 C3 40 10 50 25 50 C40 50 47 40 47 28 C47 16 42 3 25 3 Z" 
        stroke="#14b8a6" stroke-width="3" fill="white"/>
  <!-- Inner rim -->
  <path d="M25 9 C12 9 8 18 8 28 C8 38 14 44 25 44 C36 44 42 38 42 28 C42 18 38 9 25 9 Z" 
        stroke="#14b8a6" stroke-width="2" fill="none"/>
  <!-- Narrow handle -->
  <path d="M20 50 L18 80 L32 80 L30 50" 
        stroke="#14b8a6" stroke-width="3" fill="white" stroke-linejoin="round"/>
  <line x1="18" y1="80" x2="32" y2="80" stroke="#14b8a6" stroke-width="3" stroke-linecap="round"/>
  <!-- Grip lines -->
  <line x1="18.5" y1="58" x2="31.5" y2="58" stroke="#14b8a6" stroke-width="2"/>
  <line x1="18.3" y1="66" x2="31.7" y2="66" stroke="#14b8a6" stroke-width="2"/>
  <line x1="18" y1="74" x2="32" y2="74" stroke="#14b8a6" stroke-width="2"/>
  <!-- P letter in blue -->
  <text x="25" y="34" font-family="Arial, sans-serif" font-size="26" font-weight="700" fill="#3b82f6" text-anchor="middle">P</text>
</svg>
